<mxfile host="app.diagrams.net" modified="2022-12-19T02:31:53.393Z" agent="5.0 (Macintosh; Intel Mac OS X 10_15_7) AppleWebKit/537.36 (KHTML, like Gecko) Chrome/108.0.0.0 Safari/537.36" version="20.7.2" etag="lcoQv_XbcMRPaT3kZSSL" type="github">
  <diagram id="OaGpGVSkSWdmNU-YclEJ" name="第 1 页">
    <mxGraphModel dx="1236" dy="609" grid="1" gridSize="10" guides="1" tooltips="1" connect="1" arrows="1" fold="1" page="1" pageScale="1" pageWidth="1700" pageHeight="1100" math="0" shadow="0">
      <root>
        <mxCell id="0" />
        <mxCell id="1" parent="0" />
        <mxCell id="c13rjg0IlIpuNRMrlld8-1" value="" style="rounded=0;whiteSpace=wrap;html=1;fillColor=#1ba1e2;fontColor=#ffffff;strokeColor=#006EAF;" vertex="1" parent="1">
          <mxGeometry x="910" y="160" width="640" height="70" as="geometry" />
        </mxCell>
        <mxCell id="c13rjg0IlIpuNRMrlld8-2" value="cdp数据资产总览" style="rounded=0;whiteSpace=wrap;html=1;" vertex="1" parent="1">
          <mxGeometry x="1010" y="175" width="120" height="40" as="geometry" />
        </mxCell>
        <mxCell id="c13rjg0IlIpuNRMrlld8-3" value="媒介资产看板" style="rounded=0;whiteSpace=wrap;html=1;" vertex="1" parent="1">
          <mxGeometry x="1140" y="175" width="120" height="40" as="geometry" />
        </mxCell>
        <mxCell id="c13rjg0IlIpuNRMrlld8-4" value="微信生态人群看板" style="rounded=0;whiteSpace=wrap;html=1;" vertex="1" parent="1">
          <mxGeometry x="1270" y="175" width="120" height="40" as="geometry" />
        </mxCell>
        <mxCell id="c13rjg0IlIpuNRMrlld8-5" value="用户资产看板" style="rounded=0;whiteSpace=wrap;html=1;" vertex="1" parent="1">
          <mxGeometry x="1400" y="175" width="120" height="40" as="geometry" />
        </mxCell>
        <mxCell id="c13rjg0IlIpuNRMrlld8-6" value="应用层" style="text;html=1;strokeColor=none;fillColor=none;align=center;verticalAlign=middle;whiteSpace=wrap;rounded=0;fontColor=#FFFFFF;" vertex="1" parent="1">
          <mxGeometry x="920" y="180" width="60" height="30" as="geometry" />
        </mxCell>
        <mxCell id="c13rjg0IlIpuNRMrlld8-7" value="&lt;font style=&quot;font-size: 15px;&quot;&gt;Open&amp;nbsp; &amp;nbsp;API&lt;/font&gt;" style="rounded=0;whiteSpace=wrap;html=1;fillColor=#1ba1e2;fontColor=#ffffff;strokeColor=#006EAF;" vertex="1" parent="1">
          <mxGeometry x="910" y="260" width="640" height="40" as="geometry" />
        </mxCell>
        <mxCell id="c13rjg0IlIpuNRMrlld8-8" value="" style="rounded=0;whiteSpace=wrap;html=1;fillColor=#1ba1e2;fontColor=#ffffff;strokeColor=#006EAF;" vertex="1" parent="1">
          <mxGeometry x="910" y="350" width="640" height="70" as="geometry" />
        </mxCell>
        <mxCell id="c13rjg0IlIpuNRMrlld8-9" value="中间层" style="text;html=1;strokeColor=none;fillColor=none;align=center;verticalAlign=middle;whiteSpace=wrap;rounded=0;fontColor=#FFFFFF;" vertex="1" parent="1">
          <mxGeometry x="920" y="370" width="60" height="30" as="geometry" />
        </mxCell>
        <mxCell id="c13rjg0IlIpuNRMrlld8-10" value="数据加工" style="rounded=0;whiteSpace=wrap;html=1;" vertex="1" parent="1">
          <mxGeometry x="1000" y="365" width="120" height="40" as="geometry" />
        </mxCell>
        <mxCell id="c13rjg0IlIpuNRMrlld8-11" value="异构数据处理" style="rounded=0;whiteSpace=wrap;html=1;" vertex="1" parent="1">
          <mxGeometry x="1130" y="365" width="120" height="40" as="geometry" />
        </mxCell>
        <mxCell id="c13rjg0IlIpuNRMrlld8-12" value="任务调度" style="rounded=0;whiteSpace=wrap;html=1;" vertex="1" parent="1">
          <mxGeometry x="1260" y="365" width="120" height="40" as="geometry" />
        </mxCell>
        <mxCell id="c13rjg0IlIpuNRMrlld8-13" value="配置管理" style="rounded=0;whiteSpace=wrap;html=1;" vertex="1" parent="1">
          <mxGeometry x="1390" y="365" width="120" height="40" as="geometry" />
        </mxCell>
        <mxCell id="c13rjg0IlIpuNRMrlld8-14" value="" style="rounded=0;whiteSpace=wrap;html=1;fillColor=#1ba1e2;fontColor=#ffffff;strokeColor=#006EAF;" vertex="1" parent="1">
          <mxGeometry x="910" y="470" width="640" height="70" as="geometry" />
        </mxCell>
        <mxCell id="c13rjg0IlIpuNRMrlld8-15" value="存储层" style="text;html=1;strokeColor=none;fillColor=none;align=center;verticalAlign=middle;whiteSpace=wrap;rounded=0;fontColor=#FFFFFF;" vertex="1" parent="1">
          <mxGeometry x="920" y="490" width="60" height="30" as="geometry" />
        </mxCell>
        <mxCell id="c13rjg0IlIpuNRMrlld8-16" value="指标结果" style="rounded=0;whiteSpace=wrap;html=1;" vertex="1" parent="1">
          <mxGeometry x="1140" y="485" width="120" height="40" as="geometry" />
        </mxCell>
        <mxCell id="c13rjg0IlIpuNRMrlld8-17" value="中间表结果" style="rounded=0;whiteSpace=wrap;html=1;" vertex="1" parent="1">
          <mxGeometry x="1290" y="485" width="120" height="40" as="geometry" />
        </mxCell>
        <mxCell id="c13rjg0IlIpuNRMrlld8-18" value="" style="rounded=0;whiteSpace=wrap;html=1;fontSize=15;fontColor=#FFFFFF;fillColor=#66FFFF;labelBackgroundColor=#33FFFF;strokeColor=none;" vertex="1" parent="1">
          <mxGeometry x="230" y="160" width="70" height="380" as="geometry" />
        </mxCell>
        <mxCell id="c13rjg0IlIpuNRMrlld8-19" value="&lt;font color=&quot;#000000&quot; style=&quot;font-size: 12px;&quot;&gt;数据存储&lt;/font&gt;" style="text;html=1;strokeColor=none;fillColor=none;align=center;verticalAlign=middle;whiteSpace=wrap;rounded=0;fontSize=12;fontColor=#FFFFFF;" vertex="1" parent="1">
          <mxGeometry x="235" y="165" width="60" height="30" as="geometry" />
        </mxCell>
        <mxCell id="c13rjg0IlIpuNRMrlld8-20" value="HDFS" style="text;html=1;strokeColor=none;fillColor=none;align=center;verticalAlign=middle;whiteSpace=wrap;rounded=0;labelBackgroundColor=#33FFFF;fontSize=13;fontColor=#000000;" vertex="1" parent="1">
          <mxGeometry x="235" y="345" width="60" height="30" as="geometry" />
        </mxCell>
        <mxCell id="c13rjg0IlIpuNRMrlld8-21" value="&lt;span style=&quot;color: rgba(0, 0, 0, 0); font-family: monospace; font-size: 0px; text-align: start; background-color: rgb(251, 251, 251);&quot;&gt;%3CmxGraphModel%3E%3Croot%3E%3CmxCell%20id%3D%220%22%2F%3E%3CmxCell%20id%3D%221%22%20parent%3D%220%22%2F%3E%3CmxCell%20id%3D%222%22%20value%3D%22%26lt%3Bfont%20color%3D%26quot%3B%23000000%26quot%3B%20style%3D%26quot%3Bfont-size%3A%2013px%3B%26quot%3B%26gt%3B%E6%95%B0%E6%8D%AE%E5%AD%98%E5%82%A8%26lt%3B%2Ffont%26gt%3B%22%20style%3D%22text%3Bhtml%3D1%3BstrokeColor%3Dnone%3BfillColor%3Dnone%3Balign%3Dcenter%3BverticalAlign%3Dmiddle%3BwhiteSpace%3Dwrap%3Brounded%3D0%3BfontSize%3D13%3BfontColor%3D%23FFFFFF%3B%22%20vertex%3D%221%22%20parent%3D%221%22%3E%3CmxGeometry%20x%3D%22235%22%20y%3D%22165%22%20width%3D%2260%22%20height%3D%2230%22%20as%3D%22geometry%22%2F%3E%3C%2FmxCell%3E%3C%2Froot%3E%3C%2FmxGraphModel%3E&lt;/span&gt;" style="rounded=0;whiteSpace=wrap;html=1;fontSize=15;fontColor=#FFFFFF;fillColor=#66B2FF;labelBackgroundColor=#33FFFF;strokeColor=none;" vertex="1" parent="1">
          <mxGeometry x="310" y="160" width="70" height="380" as="geometry" />
        </mxCell>
        <mxCell id="c13rjg0IlIpuNRMrlld8-22" value="&lt;font color=&quot;#000000&quot; style=&quot;font-size: 12px;&quot;&gt;计算引擎&lt;/font&gt;" style="text;html=1;strokeColor=none;fillColor=none;align=center;verticalAlign=middle;whiteSpace=wrap;rounded=0;fontSize=12;fontColor=#FFFFFF;" vertex="1" parent="1">
          <mxGeometry x="315" y="165" width="60" height="30" as="geometry" />
        </mxCell>
        <mxCell id="c13rjg0IlIpuNRMrlld8-23" value="SparkSQL" style="text;html=1;strokeColor=none;fillColor=none;align=center;verticalAlign=middle;whiteSpace=wrap;rounded=0;labelBackgroundColor=none;fontSize=12;fontColor=#000000;" vertex="1" parent="1">
          <mxGeometry x="315" y="345" width="60" height="30" as="geometry" />
        </mxCell>
        <mxCell id="c13rjg0IlIpuNRMrlld8-24" value="" style="rounded=0;whiteSpace=wrap;html=1;labelBackgroundColor=none;strokeColor=#BD7000;fontSize=12;fontColor=#000000;fillColor=#f0a30a;" vertex="1" parent="1">
          <mxGeometry x="410" y="160" width="400" height="120" as="geometry" />
        </mxCell>
        <mxCell id="c13rjg0IlIpuNRMrlld8-25" value="源数据" style="text;html=1;strokeColor=none;fillColor=none;align=center;verticalAlign=middle;whiteSpace=wrap;rounded=0;labelBackgroundColor=none;fontSize=12;fontColor=#000000;" vertex="1" parent="1">
          <mxGeometry x="410" y="165" width="60" height="30" as="geometry" />
        </mxCell>
        <mxCell id="c13rjg0IlIpuNRMrlld8-26" value="消费者数据&lt;br&gt;（会员，订单）" style="rounded=0;whiteSpace=wrap;html=1;labelBackgroundColor=none;strokeColor=#00FFFF;fontSize=12;fontColor=#000000;fillColor=#FFFFFF;" vertex="1" parent="1">
          <mxGeometry x="430" y="200" width="90" height="55" as="geometry" />
        </mxCell>
        <mxCell id="c13rjg0IlIpuNRMrlld8-29" value="微生态数据&lt;br&gt;（公众号，小程序，企微）" style="rounded=0;whiteSpace=wrap;html=1;labelBackgroundColor=none;strokeColor=#00FFFF;fontSize=12;fontColor=#000000;fillColor=#FFFFFF;" vertex="1" parent="1">
          <mxGeometry x="540" y="200" width="150" height="55" as="geometry" />
        </mxCell>
        <mxCell id="c13rjg0IlIpuNRMrlld8-30" value="媒介数据" style="rounded=0;whiteSpace=wrap;html=1;labelBackgroundColor=none;strokeColor=#00FFFF;fontSize=12;fontColor=#000000;fillColor=#FFFFFF;" vertex="1" parent="1">
          <mxGeometry x="710" y="200" width="90" height="55" as="geometry" />
        </mxCell>
        <mxCell id="c13rjg0IlIpuNRMrlld8-31" value="" style="rounded=0;whiteSpace=wrap;html=1;labelBackgroundColor=none;strokeColor=#00FFFF;fontSize=12;fontColor=#000000;fillColor=#A9C4EB;" vertex="1" parent="1">
          <mxGeometry x="410" y="310" width="400" height="230" as="geometry" />
        </mxCell>
        <mxCell id="c13rjg0IlIpuNRMrlld8-32" value="指标" style="text;html=1;strokeColor=none;fillColor=none;align=center;verticalAlign=middle;whiteSpace=wrap;rounded=0;labelBackgroundColor=none;fontSize=12;fontColor=#000000;" vertex="1" parent="1">
          <mxGeometry x="410" y="315" width="60" height="30" as="geometry" />
        </mxCell>
        <mxCell id="c13rjg0IlIpuNRMrlld8-33" value="消费者体系OneId数据资产" style="rounded=0;whiteSpace=wrap;html=1;labelBackgroundColor=none;strokeColor=#00FFFF;fontSize=12;fontColor=#000000;fillColor=#FFFFFF;" vertex="1" parent="1">
          <mxGeometry x="430" y="350" width="110" height="30" as="geometry" />
        </mxCell>
        <mxCell id="c13rjg0IlIpuNRMrlld8-34" value="人群数据资产总览" style="rounded=0;whiteSpace=wrap;html=1;labelBackgroundColor=none;strokeColor=#00FFFF;fontSize=12;fontColor=#000000;fillColor=#FFFFFF;" vertex="1" parent="1">
          <mxGeometry x="555" y="350" width="110" height="30" as="geometry" />
        </mxCell>
        <mxCell id="c13rjg0IlIpuNRMrlld8-35" value="媒介可运营资产报告" style="rounded=0;whiteSpace=wrap;html=1;labelBackgroundColor=none;strokeColor=#00FFFF;fontSize=12;fontColor=#000000;fillColor=#FFFFFF;" vertex="1" parent="1">
          <mxGeometry x="680" y="350" width="110" height="30" as="geometry" />
        </mxCell>
        <mxCell id="c13rjg0IlIpuNRMrlld8-36" value="媒介人群类型分布" style="rounded=0;whiteSpace=wrap;html=1;labelBackgroundColor=none;strokeColor=#00FFFF;fontSize=12;fontColor=#000000;fillColor=#FFFFFF;" vertex="1" parent="1">
          <mxGeometry x="430" y="385" width="110" height="30" as="geometry" />
        </mxCell>
        <mxCell id="c13rjg0IlIpuNRMrlld8-37" value="媒介数据来源分布" style="rounded=0;whiteSpace=wrap;html=1;labelBackgroundColor=none;strokeColor=#00FFFF;fontSize=12;fontColor=#000000;fillColor=#FFFFFF;" vertex="1" parent="1">
          <mxGeometry x="555" y="385" width="110" height="30" as="geometry" />
        </mxCell>
        <mxCell id="c13rjg0IlIpuNRMrlld8-38" value="微生态资产" style="rounded=0;whiteSpace=wrap;html=1;labelBackgroundColor=none;strokeColor=#00FFFF;fontSize=12;fontColor=#000000;fillColor=#FFFFFF;" vertex="1" parent="1">
          <mxGeometry x="680" y="385" width="110" height="30" as="geometry" />
        </mxCell>
        <mxCell id="c13rjg0IlIpuNRMrlld8-39" value="公众号资产" style="rounded=0;whiteSpace=wrap;html=1;labelBackgroundColor=none;strokeColor=#00FFFF;fontSize=12;fontColor=#000000;fillColor=#FFFFFF;" vertex="1" parent="1">
          <mxGeometry x="430" y="420" width="110" height="30" as="geometry" />
        </mxCell>
        <mxCell id="c13rjg0IlIpuNRMrlld8-40" value="小程序资产" style="rounded=0;whiteSpace=wrap;html=1;labelBackgroundColor=none;strokeColor=#00FFFF;fontSize=12;fontColor=#000000;fillColor=#FFFFFF;" vertex="1" parent="1">
          <mxGeometry x="555" y="420" width="110" height="30" as="geometry" />
        </mxCell>
        <mxCell id="c13rjg0IlIpuNRMrlld8-41" value="企微资产" style="rounded=0;whiteSpace=wrap;html=1;labelBackgroundColor=none;strokeColor=#00FFFF;fontSize=12;fontColor=#000000;fillColor=#FFFFFF;" vertex="1" parent="1">
          <mxGeometry x="680" y="420" width="110" height="30" as="geometry" />
        </mxCell>
        <mxCell id="c13rjg0IlIpuNRMrlld8-42" value="用户资产" style="rounded=0;whiteSpace=wrap;html=1;labelBackgroundColor=none;strokeColor=#00FFFF;fontSize=12;fontColor=#000000;fillColor=#FFFFFF;" vertex="1" parent="1">
          <mxGeometry x="430" y="460" width="110" height="30" as="geometry" />
        </mxCell>
        <mxCell id="c13rjg0IlIpuNRMrlld8-43" value="会员资产" style="rounded=0;whiteSpace=wrap;html=1;labelBackgroundColor=none;strokeColor=#00FFFF;fontSize=12;fontColor=#000000;fillColor=#FFFFFF;" vertex="1" parent="1">
          <mxGeometry x="555" y="460" width="110" height="30" as="geometry" />
        </mxCell>
        <mxCell id="c13rjg0IlIpuNRMrlld8-44" value="CRM指标资产" style="rounded=0;whiteSpace=wrap;html=1;labelBackgroundColor=none;strokeColor=#00FFFF;fontSize=12;fontColor=#000000;fillColor=#FFFFFF;" vertex="1" parent="1">
          <mxGeometry x="680" y="460" width="110" height="30" as="geometry" />
        </mxCell>
        <mxCell id="c13rjg0IlIpuNRMrlld8-45" value="非会员资产" style="rounded=0;whiteSpace=wrap;html=1;labelBackgroundColor=none;strokeColor=#00FFFF;fontSize=12;fontColor=#000000;fillColor=#FFFFFF;" vertex="1" parent="1">
          <mxGeometry x="430" y="500" width="110" height="30" as="geometry" />
        </mxCell>
        <mxCell id="c13rjg0IlIpuNRMrlld8-46" value="品牌重合度" style="rounded=0;whiteSpace=wrap;html=1;labelBackgroundColor=none;strokeColor=#00FFFF;fontSize=12;fontColor=#000000;fillColor=#FFFFFF;" vertex="1" parent="1">
          <mxGeometry x="555" y="500" width="110" height="30" as="geometry" />
        </mxCell>
        <mxCell id="c13rjg0IlIpuNRMrlld8-47" value="" style="shape=flexArrow;endArrow=classic;html=1;rounded=0;fontSize=12;fontColor=#000000;" edge="1" parent="1">
          <mxGeometry width="50" height="50" relative="1" as="geometry">
            <mxPoint x="825" y="510" as="sourcePoint" />
            <mxPoint x="900" y="510" as="targetPoint" />
          </mxGeometry>
        </mxCell>
        <mxCell id="c13rjg0IlIpuNRMrlld8-48" value="" style="rounded=0;whiteSpace=wrap;html=1;labelBackgroundColor=none;strokeColor=#FFFFFF;fontSize=12;fontColor=#000000;fillColor=none;gradientColor=none;" vertex="1" parent="1">
          <mxGeometry x="980" y="480" width="510" height="52.5" as="geometry" />
        </mxCell>
        <mxCell id="c13rjg0IlIpuNRMrlld8-50" value="&lt;b&gt;MySql&lt;/b&gt;" style="text;html=1;strokeColor=none;fillColor=none;align=center;verticalAlign=middle;whiteSpace=wrap;rounded=0;labelBackgroundColor=none;fontSize=12;fontColor=#000000;strokeWidth=3;" vertex="1" parent="1">
          <mxGeometry x="990" y="491.25" width="60" height="30" as="geometry" />
        </mxCell>
        <mxCell id="c13rjg0IlIpuNRMrlld8-51" value="同步工具&lt;br&gt;DataX" style="rounded=0;whiteSpace=wrap;html=1;labelBackgroundColor=none;strokeColor=#FFFFFF;strokeWidth=3;fontSize=12;fontColor=#000000;fillColor=#66B2FF;gradientColor=none;" vertex="1" parent="1">
          <mxGeometry x="820" y="532.5" width="70" height="70" as="geometry" />
        </mxCell>
      </root>
    </mxGraphModel>
  </diagram>
</mxfile>
